<mxfile host="Electron" agent="Mozilla/5.0 (Windows NT 10.0; Win64; x64) AppleWebKit/537.36 (KHTML, like Gecko) draw.io/26.0.16 Chrome/132.0.6834.196 Electron/34.2.0 Safari/537.36" version="26.0.16">
  <diagram id="C5RBs43oDa-KdzZeNtuy" name="Page-1">
    <mxGraphModel dx="2607" dy="1520" grid="1" gridSize="10" guides="1" tooltips="1" connect="1" arrows="1" fold="1" page="1" pageScale="1" pageWidth="1654" pageHeight="2336" math="0" shadow="0">
      <root>
        <mxCell id="WIyWlLk6GJQsqaUBKTNV-0" />
        <mxCell id="WIyWlLk6GJQsqaUBKTNV-1" parent="WIyWlLk6GJQsqaUBKTNV-0" />
        <mxCell id="FCRwLtAqivfEXj3RPyWo-0" value="Abstract Class:&lt;div&gt;User&lt;/div&gt;" style="swimlane;fontStyle=1;align=center;verticalAlign=top;childLayout=stackLayout;horizontal=1;startSize=40;horizontalStack=0;resizeParent=1;resizeParentMax=0;resizeLast=0;collapsible=1;marginBottom=0;whiteSpace=wrap;html=1;" parent="WIyWlLk6GJQsqaUBKTNV-1" vertex="1">
          <mxGeometry x="390" y="30" width="160" height="340" as="geometry" />
        </mxCell>
        <mxCell id="FCRwLtAqivfEXj3RPyWo-1" value="&lt;div&gt;&amp;nbsp; &amp;nbsp; #id: int&lt;/div&gt;&lt;div&gt;&amp;nbsp; &amp;nbsp; #name: string&lt;/div&gt;&lt;div&gt;&amp;nbsp; &amp;nbsp; #email: string&lt;/div&gt;&lt;div&gt;&amp;nbsp; &amp;nbsp; #password: string&lt;/div&gt;&lt;div&gt;&amp;nbsp; &amp;nbsp; #role: string&lt;/div&gt;" style="text;strokeColor=none;fillColor=none;align=left;verticalAlign=top;spacingLeft=4;spacingRight=4;overflow=hidden;rotatable=0;points=[[0,0.5],[1,0.5]];portConstraint=eastwest;whiteSpace=wrap;html=1;" parent="FCRwLtAqivfEXj3RPyWo-0" vertex="1">
          <mxGeometry y="40" width="160" height="80" as="geometry" />
        </mxCell>
        <mxCell id="FCRwLtAqivfEXj3RPyWo-2" value="" style="line;strokeWidth=1;fillColor=none;align=left;verticalAlign=middle;spacingTop=-1;spacingLeft=3;spacingRight=3;rotatable=0;labelPosition=right;points=[];portConstraint=eastwest;strokeColor=inherit;" parent="FCRwLtAqivfEXj3RPyWo-0" vertex="1">
          <mxGeometry y="120" width="160" height="8" as="geometry" />
        </mxCell>
        <mxCell id="FCRwLtAqivfEXj3RPyWo-3" value="&lt;div&gt;&amp;nbsp; &amp;nbsp; +getId(): int&lt;/div&gt;&lt;div&gt;&amp;nbsp; &amp;nbsp; +setId(id: int): void&lt;/div&gt;&lt;div&gt;&amp;nbsp; &amp;nbsp; +getName(): string&lt;/div&gt;&lt;div&gt;&amp;nbsp; &amp;nbsp; +setName(name: string): void&lt;/div&gt;&lt;div&gt;&amp;nbsp; &amp;nbsp; +getEmail(): string&lt;/div&gt;&lt;div&gt;&amp;nbsp; &amp;nbsp; +setEmail(email: string): void&lt;/div&gt;&lt;div&gt;&amp;nbsp; &amp;nbsp; +getPassword(): string&lt;/div&gt;&lt;div&gt;&amp;nbsp; &amp;nbsp; +setPassword(password: string): void&lt;/div&gt;&lt;div&gt;&amp;nbsp; &amp;nbsp; +getRole(): string&lt;/div&gt;&lt;div&gt;&amp;nbsp; &amp;nbsp; +setRole(): void&lt;/div&gt;" style="text;strokeColor=none;fillColor=none;align=left;verticalAlign=top;spacingLeft=4;spacingRight=4;overflow=hidden;rotatable=0;points=[[0,0.5],[1,0.5]];portConstraint=eastwest;whiteSpace=wrap;html=1;" parent="FCRwLtAqivfEXj3RPyWo-0" vertex="1">
          <mxGeometry y="128" width="160" height="212" as="geometry" />
        </mxCell>
        <mxCell id="FCRwLtAqivfEXj3RPyWo-5" value="Admin" style="swimlane;fontStyle=1;align=center;verticalAlign=top;childLayout=stackLayout;horizontal=1;startSize=40;horizontalStack=0;resizeParent=1;resizeParentMax=0;resizeLast=0;collapsible=1;marginBottom=0;whiteSpace=wrap;html=1;" parent="WIyWlLk6GJQsqaUBKTNV-1" vertex="1">
          <mxGeometry x="150" y="390" width="160" height="120" as="geometry" />
        </mxCell>
        <mxCell id="FCRwLtAqivfEXj3RPyWo-7" value="" style="line;strokeWidth=1;fillColor=none;align=left;verticalAlign=middle;spacingTop=-1;spacingLeft=3;spacingRight=3;rotatable=0;labelPosition=right;points=[];portConstraint=eastwest;strokeColor=inherit;" parent="FCRwLtAqivfEXj3RPyWo-5" vertex="1">
          <mxGeometry y="40" width="160" height="8" as="geometry" />
        </mxCell>
        <mxCell id="FCRwLtAqivfEXj3RPyWo-8" value="&lt;div&gt;&amp;nbsp; &amp;nbsp; +manageUsers()&lt;/div&gt;&lt;div&gt;&amp;nbsp; &amp;nbsp; +manageCourses()&lt;/div&gt;&lt;div&gt;&amp;nbsp; &amp;nbsp; +changeRole(id: int)&lt;/div&gt;&lt;div&gt;&amp;nbsp; &amp;nbsp; +deleteUser(id: int)&lt;/div&gt;" style="text;strokeColor=none;fillColor=none;align=left;verticalAlign=top;spacingLeft=4;spacingRight=4;overflow=hidden;rotatable=0;points=[[0,0.5],[1,0.5]];portConstraint=eastwest;whiteSpace=wrap;html=1;" parent="FCRwLtAqivfEXj3RPyWo-5" vertex="1">
          <mxGeometry y="48" width="160" height="72" as="geometry" />
        </mxCell>
        <mxCell id="FCRwLtAqivfEXj3RPyWo-9" value="" style="endArrow=block;endSize=16;endFill=0;html=1;rounded=0;entryX=-0.012;entryY=0.792;entryDx=0;entryDy=0;entryPerimeter=0;exitX=0.5;exitY=0;exitDx=0;exitDy=0;" parent="WIyWlLk6GJQsqaUBKTNV-1" source="FCRwLtAqivfEXj3RPyWo-5" target="FCRwLtAqivfEXj3RPyWo-3" edge="1">
          <mxGeometry width="160" relative="1" as="geometry">
            <mxPoint x="170" y="480" as="sourcePoint" />
            <mxPoint x="330" y="480" as="targetPoint" />
          </mxGeometry>
        </mxCell>
        <mxCell id="FCRwLtAqivfEXj3RPyWo-26" value="Course" style="swimlane;fontStyle=1;align=center;verticalAlign=top;childLayout=stackLayout;horizontal=1;startSize=40;horizontalStack=0;resizeParent=1;resizeParentMax=0;resizeLast=0;collapsible=1;marginBottom=0;whiteSpace=wrap;html=1;" parent="WIyWlLk6GJQsqaUBKTNV-1" vertex="1">
          <mxGeometry x="390" y="800" width="160" height="240" as="geometry" />
        </mxCell>
        <mxCell id="FCRwLtAqivfEXj3RPyWo-27" value="&lt;div&gt;&amp;nbsp; &amp;nbsp; -id: int&lt;/div&gt;&lt;div&gt;&amp;nbsp; &amp;nbsp; -title: string&lt;/div&gt;&lt;div&gt;&amp;nbsp; &amp;nbsp; -description: string&lt;/div&gt;" style="text;strokeColor=none;fillColor=none;align=left;verticalAlign=top;spacingLeft=4;spacingRight=4;overflow=hidden;rotatable=0;points=[[0,0.5],[1,0.5]];portConstraint=eastwest;whiteSpace=wrap;html=1;" parent="FCRwLtAqivfEXj3RPyWo-26" vertex="1">
          <mxGeometry y="40" width="160" height="60" as="geometry" />
        </mxCell>
        <mxCell id="FCRwLtAqivfEXj3RPyWo-28" value="" style="line;strokeWidth=1;fillColor=none;align=left;verticalAlign=middle;spacingTop=-1;spacingLeft=3;spacingRight=3;rotatable=0;labelPosition=right;points=[];portConstraint=eastwest;strokeColor=inherit;" parent="FCRwLtAqivfEXj3RPyWo-26" vertex="1">
          <mxGeometry y="100" width="160" height="8" as="geometry" />
        </mxCell>
        <mxCell id="FCRwLtAqivfEXj3RPyWo-29" value="&lt;div&gt;&amp;nbsp; &amp;nbsp; +getId(): int&lt;/div&gt;&lt;div&gt;&amp;nbsp; &amp;nbsp; +setId(id: int): void&lt;/div&gt;&lt;div&gt;&amp;nbsp; &amp;nbsp; +getTitle(): string&lt;/div&gt;&lt;div&gt;&amp;nbsp; &amp;nbsp; +setTitle(title: string): void&lt;/div&gt;&lt;div&gt;&amp;nbsp; &amp;nbsp; +getDescription(): text&lt;/div&gt;&lt;div&gt;&amp;nbsp; &amp;nbsp; +setDescription(description: text): void&lt;/div&gt;&lt;div&gt;&lt;br&gt;&lt;/div&gt;" style="text;strokeColor=none;fillColor=none;align=left;verticalAlign=top;spacingLeft=4;spacingRight=4;overflow=hidden;rotatable=0;points=[[0,0.5],[1,0.5]];portConstraint=eastwest;whiteSpace=wrap;html=1;" parent="FCRwLtAqivfEXj3RPyWo-26" vertex="1">
          <mxGeometry y="108" width="160" height="132" as="geometry" />
        </mxCell>
        <mxCell id="FCRwLtAqivfEXj3RPyWo-32" value="" style="endArrow=none;html=1;rounded=0;exitX=0.525;exitY=1.016;exitDx=0;exitDy=0;exitPerimeter=0;" parent="WIyWlLk6GJQsqaUBKTNV-1" source="FCRwLtAqivfEXj3RPyWo-71" target="FCRwLtAqivfEXj3RPyWo-26" edge="1">
          <mxGeometry width="50" height="50" relative="1" as="geometry">
            <mxPoint x="465" y="710" as="sourcePoint" />
            <mxPoint x="535" y="760" as="targetPoint" />
          </mxGeometry>
        </mxCell>
        <mxCell id="FCRwLtAqivfEXj3RPyWo-33" value="creates" style="text;html=1;align=center;verticalAlign=middle;resizable=0;points=[];autosize=1;strokeColor=none;fillColor=none;" parent="WIyWlLk6GJQsqaUBKTNV-1" vertex="1">
          <mxGeometry x="470" y="708" width="60" height="30" as="geometry" />
        </mxCell>
        <mxCell id="FCRwLtAqivfEXj3RPyWo-36" value="0...*" style="text;html=1;align=center;verticalAlign=middle;resizable=0;points=[];autosize=1;strokeColor=none;fillColor=none;" parent="WIyWlLk6GJQsqaUBKTNV-1" vertex="1">
          <mxGeometry x="470" y="770" width="40" height="30" as="geometry" />
        </mxCell>
        <mxCell id="FCRwLtAqivfEXj3RPyWo-37" value="" style="endArrow=none;html=1;rounded=0;exitX=0.25;exitY=1;exitDx=0;exitDy=0;exitPerimeter=0;entryX=1.006;entryY=0.188;entryDx=0;entryDy=0;entryPerimeter=0;" parent="WIyWlLk6GJQsqaUBKTNV-1" target="FCRwLtAqivfEXj3RPyWo-27" edge="1">
          <mxGeometry width="50" height="50" relative="1" as="geometry">
            <mxPoint x="752.5" y="650" as="sourcePoint" />
            <mxPoint x="552" y="820" as="targetPoint" />
          </mxGeometry>
        </mxCell>
        <mxCell id="FCRwLtAqivfEXj3RPyWo-38" value="0...*" style="text;html=1;align=center;verticalAlign=middle;resizable=0;points=[];autosize=1;strokeColor=none;fillColor=none;" parent="WIyWlLk6GJQsqaUBKTNV-1" vertex="1">
          <mxGeometry x="690" y="648" width="40" height="30" as="geometry" />
        </mxCell>
        <mxCell id="FCRwLtAqivfEXj3RPyWo-39" value="0...*" style="text;html=1;align=center;verticalAlign=middle;resizable=0;points=[];autosize=1;strokeColor=none;fillColor=none;" parent="WIyWlLk6GJQsqaUBKTNV-1" vertex="1">
          <mxGeometry x="550" y="800" width="40" height="30" as="geometry" />
        </mxCell>
        <mxCell id="FCRwLtAqivfEXj3RPyWo-40" value="Enrolled in" style="text;html=1;align=center;verticalAlign=middle;resizable=0;points=[];autosize=1;strokeColor=none;fillColor=none;" parent="WIyWlLk6GJQsqaUBKTNV-1" vertex="1">
          <mxGeometry x="630" y="678" width="80" height="30" as="geometry" />
        </mxCell>
        <mxCell id="FCRwLtAqivfEXj3RPyWo-42" value="Assignment" style="swimlane;fontStyle=1;align=center;verticalAlign=top;childLayout=stackLayout;horizontal=1;startSize=40;horizontalStack=0;resizeParent=1;resizeParentMax=0;resizeLast=0;collapsible=1;marginBottom=0;whiteSpace=wrap;html=1;" parent="WIyWlLk6GJQsqaUBKTNV-1" vertex="1">
          <mxGeometry x="760" y="940" width="160" height="230" as="geometry" />
        </mxCell>
        <mxCell id="FCRwLtAqivfEXj3RPyWo-43" value="&lt;div&gt;&amp;nbsp; &amp;nbsp; -id: int&lt;/div&gt;&lt;div&gt;&amp;nbsp; &amp;nbsp; -title: string&lt;/div&gt;&lt;div&gt;&amp;nbsp; &amp;nbsp; -content: text&lt;/div&gt;" style="text;strokeColor=none;fillColor=none;align=left;verticalAlign=top;spacingLeft=4;spacingRight=4;overflow=hidden;rotatable=0;points=[[0,0.5],[1,0.5]];portConstraint=eastwest;whiteSpace=wrap;html=1;" parent="FCRwLtAqivfEXj3RPyWo-42" vertex="1">
          <mxGeometry y="40" width="160" height="50" as="geometry" />
        </mxCell>
        <mxCell id="FCRwLtAqivfEXj3RPyWo-44" value="" style="line;strokeWidth=1;fillColor=none;align=left;verticalAlign=middle;spacingTop=-1;spacingLeft=3;spacingRight=3;rotatable=0;labelPosition=right;points=[];portConstraint=eastwest;strokeColor=inherit;" parent="FCRwLtAqivfEXj3RPyWo-42" vertex="1">
          <mxGeometry y="90" width="160" height="8" as="geometry" />
        </mxCell>
        <mxCell id="FCRwLtAqivfEXj3RPyWo-45" value="&lt;div&gt;&lt;br&gt;&lt;/div&gt;&lt;div&gt;&amp;nbsp; &amp;nbsp; +getTitle(): string&lt;/div&gt;&lt;div&gt;&amp;nbsp; &amp;nbsp; +setTitle(title: string): void&lt;/div&gt;&lt;div&gt;&amp;nbsp; &amp;nbsp; +getContent(): text&lt;/div&gt;&lt;div&gt;&amp;nbsp; &amp;nbsp; +setContent(content: text): void&lt;/div&gt;&lt;div&gt;&lt;div&gt;&amp;nbsp; &amp;nbsp; +getId(): int&lt;/div&gt;&lt;div&gt;&amp;nbsp; &amp;nbsp; +setId(id: int): void&lt;/div&gt;&lt;/div&gt;" style="text;strokeColor=none;fillColor=none;align=left;verticalAlign=top;spacingLeft=4;spacingRight=4;overflow=hidden;rotatable=0;points=[[0,0.5],[1,0.5]];portConstraint=eastwest;whiteSpace=wrap;html=1;" parent="FCRwLtAqivfEXj3RPyWo-42" vertex="1">
          <mxGeometry y="98" width="160" height="132" as="geometry" />
        </mxCell>
        <mxCell id="FCRwLtAqivfEXj3RPyWo-46" value="" style="endArrow=none;html=1;rounded=0;exitX=0.773;exitY=1;exitDx=0;exitDy=0;exitPerimeter=0;entryX=0.5;entryY=0;entryDx=0;entryDy=0;" parent="WIyWlLk6GJQsqaUBKTNV-1" target="FCRwLtAqivfEXj3RPyWo-42" edge="1">
          <mxGeometry width="50" height="50" relative="1" as="geometry">
            <mxPoint x="841.4099999999999" y="650" as="sourcePoint" />
            <mxPoint x="640" y="855" as="targetPoint" />
          </mxGeometry>
        </mxCell>
        <mxCell id="FCRwLtAqivfEXj3RPyWo-47" value="0...*" style="text;html=1;align=center;verticalAlign=middle;resizable=0;points=[];autosize=1;strokeColor=none;fillColor=none;" parent="WIyWlLk6GJQsqaUBKTNV-1" vertex="1">
          <mxGeometry x="800" y="648" width="40" height="30" as="geometry" />
        </mxCell>
        <mxCell id="FCRwLtAqivfEXj3RPyWo-48" value="0...*" style="text;html=1;align=center;verticalAlign=middle;resizable=0;points=[];autosize=1;strokeColor=none;fillColor=none;" parent="WIyWlLk6GJQsqaUBKTNV-1" vertex="1">
          <mxGeometry x="800" y="900" width="40" height="30" as="geometry" />
        </mxCell>
        <mxCell id="FCRwLtAqivfEXj3RPyWo-49" value="is assigned" style="text;html=1;align=center;verticalAlign=middle;resizable=0;points=[];autosize=1;strokeColor=none;fillColor=none;" parent="WIyWlLk6GJQsqaUBKTNV-1" vertex="1">
          <mxGeometry x="840" y="790" width="80" height="30" as="geometry" />
        </mxCell>
        <mxCell id="FCRwLtAqivfEXj3RPyWo-51" value="creates" style="text;html=1;align=center;verticalAlign=middle;resizable=0;points=[];autosize=1;strokeColor=none;fillColor=none;" parent="WIyWlLk6GJQsqaUBKTNV-1" vertex="1">
          <mxGeometry x="660" y="810" width="60" height="30" as="geometry" />
        </mxCell>
        <mxCell id="FCRwLtAqivfEXj3RPyWo-52" value="" style="endArrow=none;html=1;rounded=0;exitX=0.944;exitY=1;exitDx=0;exitDy=0;exitPerimeter=0;entryX=0.019;entryY=0.146;entryDx=0;entryDy=0;entryPerimeter=0;" parent="WIyWlLk6GJQsqaUBKTNV-1" source="FCRwLtAqivfEXj3RPyWo-71" target="FCRwLtAqivfEXj3RPyWo-42" edge="1">
          <mxGeometry width="50" height="50" relative="1" as="geometry">
            <mxPoint x="520.0799999999999" y="608.902" as="sourcePoint" />
            <mxPoint x="760" y="990" as="targetPoint" />
          </mxGeometry>
        </mxCell>
        <mxCell id="FCRwLtAqivfEXj3RPyWo-53" value="0...*" style="text;html=1;align=center;verticalAlign=middle;resizable=0;points=[];autosize=1;strokeColor=none;fillColor=none;" parent="WIyWlLk6GJQsqaUBKTNV-1" vertex="1">
          <mxGeometry x="720" y="900" width="40" height="30" as="geometry" />
        </mxCell>
        <mxCell id="FCRwLtAqivfEXj3RPyWo-68" value="Teacher" style="swimlane;fontStyle=1;align=center;verticalAlign=top;childLayout=stackLayout;horizontal=1;startSize=40;horizontalStack=0;resizeParent=1;resizeParentMax=0;resizeLast=0;collapsible=1;marginBottom=0;whiteSpace=wrap;html=1;" parent="WIyWlLk6GJQsqaUBKTNV-1" vertex="1">
          <mxGeometry x="390" y="440" width="160" height="210" as="geometry" />
        </mxCell>
        <mxCell id="FCRwLtAqivfEXj3RPyWo-69" value="&lt;div&gt;&amp;nbsp; &amp;nbsp; -courses: collection&lt;/div&gt;&lt;div&gt;&amp;nbsp; &amp;nbsp; -assignments: collection&lt;/div&gt;" style="text;strokeColor=none;fillColor=none;align=left;verticalAlign=top;spacingLeft=4;spacingRight=4;overflow=hidden;rotatable=0;points=[[0,0.5],[1,0.5]];portConstraint=eastwest;whiteSpace=wrap;html=1;" parent="FCRwLtAqivfEXj3RPyWo-68" vertex="1">
          <mxGeometry y="40" width="160" height="40" as="geometry" />
        </mxCell>
        <mxCell id="FCRwLtAqivfEXj3RPyWo-70" value="" style="line;strokeWidth=1;fillColor=none;align=left;verticalAlign=middle;spacingTop=-1;spacingLeft=3;spacingRight=3;rotatable=0;labelPosition=right;points=[];portConstraint=eastwest;strokeColor=inherit;" parent="FCRwLtAqivfEXj3RPyWo-68" vertex="1">
          <mxGeometry y="80" width="160" height="8" as="geometry" />
        </mxCell>
        <mxCell id="FCRwLtAqivfEXj3RPyWo-71" value="&lt;div&gt;&amp;nbsp; &amp;nbsp; +getCourses():&amp;nbsp;&lt;span style=&quot;background-color: transparent; color: light-dark(rgb(0, 0, 0), rgb(255, 255, 255));&quot;&gt;&amp;nbsp; &amp;nbsp;&amp;nbsp;&lt;/span&gt;&lt;/div&gt;&lt;div&gt;&amp;nbsp; &amp;nbsp; +getAssignments():&amp;nbsp;&lt;/div&gt;&lt;div&gt;&amp;nbsp; &amp;nbsp; +createAssignment(title: string, content: string)&lt;/div&gt;&lt;div&gt;&amp;nbsp; &amp;nbsp; +deleteAssignment(id: int)&lt;/div&gt;&lt;div&gt;&amp;nbsp;+assignToStudents(assignmentId: int, students: array)&lt;/div&gt;" style="text;strokeColor=none;fillColor=none;align=left;verticalAlign=top;spacingLeft=4;spacingRight=4;overflow=hidden;rotatable=0;points=[[0,0.5],[1,0.5]];portConstraint=eastwest;whiteSpace=wrap;html=1;" parent="FCRwLtAqivfEXj3RPyWo-68" vertex="1">
          <mxGeometry y="88" width="160" height="122" as="geometry" />
        </mxCell>
        <mxCell id="FCRwLtAqivfEXj3RPyWo-74" value="Student" style="swimlane;fontStyle=1;align=center;verticalAlign=top;childLayout=stackLayout;horizontal=1;startSize=40;horizontalStack=0;resizeParent=1;resizeParentMax=0;resizeLast=0;collapsible=1;marginBottom=0;whiteSpace=wrap;html=1;" parent="WIyWlLk6GJQsqaUBKTNV-1" vertex="1">
          <mxGeometry x="730" y="434" width="160" height="214" as="geometry" />
        </mxCell>
        <mxCell id="FCRwLtAqivfEXj3RPyWo-75" value="&lt;div&gt;&amp;nbsp; &amp;nbsp; -courses: collection&lt;/div&gt;&lt;div&gt;&amp;nbsp; &amp;nbsp; -assignments: collection&lt;/div&gt;" style="text;strokeColor=none;fillColor=none;align=left;verticalAlign=top;spacingLeft=4;spacingRight=4;overflow=hidden;rotatable=0;points=[[0,0.5],[1,0.5]];portConstraint=eastwest;whiteSpace=wrap;html=1;" parent="FCRwLtAqivfEXj3RPyWo-74" vertex="1">
          <mxGeometry y="40" width="160" height="40" as="geometry" />
        </mxCell>
        <mxCell id="FCRwLtAqivfEXj3RPyWo-76" value="" style="line;strokeWidth=1;fillColor=none;align=left;verticalAlign=middle;spacingTop=-1;spacingLeft=3;spacingRight=3;rotatable=0;labelPosition=right;points=[];portConstraint=eastwest;strokeColor=inherit;" parent="FCRwLtAqivfEXj3RPyWo-74" vertex="1">
          <mxGeometry y="80" width="160" height="12" as="geometry" />
        </mxCell>
        <mxCell id="FCRwLtAqivfEXj3RPyWo-77" value="&lt;div&gt;&lt;span style=&quot;background-color: transparent; color: light-dark(rgb(0, 0, 0), rgb(255, 255, 255));&quot;&gt;+getAssignments(): belongsToMany&amp;lt;Assignment&amp;gt;&lt;/span&gt;&lt;/div&gt;&lt;div&gt;&lt;span style=&quot;background-color: transparent; color: light-dark(rgb(0, 0, 0), rgb(255, 255, 255));&quot;&gt;+takeQuiz(level: string, language: string)&lt;/span&gt;&lt;/div&gt;&lt;div&gt;&amp;nbsp; &amp;nbsp; +submitQuizAnswer(answer: string)&lt;/div&gt;" style="text;strokeColor=none;fillColor=none;align=left;verticalAlign=top;spacingLeft=4;spacingRight=4;overflow=hidden;rotatable=0;points=[[0,0.5],[1,0.5]];portConstraint=eastwest;whiteSpace=wrap;html=1;" parent="FCRwLtAqivfEXj3RPyWo-74" vertex="1">
          <mxGeometry y="92" width="160" height="122" as="geometry" />
        </mxCell>
        <mxCell id="FCRwLtAqivfEXj3RPyWo-78" value="1" style="text;html=1;align=center;verticalAlign=middle;resizable=0;points=[];autosize=1;strokeColor=none;fillColor=none;" parent="WIyWlLk6GJQsqaUBKTNV-1" vertex="1">
          <mxGeometry x="470" y="648" width="30" height="30" as="geometry" />
        </mxCell>
        <mxCell id="FCRwLtAqivfEXj3RPyWo-79" value="1" style="text;html=1;align=center;verticalAlign=middle;resizable=0;points=[];autosize=1;strokeColor=none;fillColor=none;" parent="WIyWlLk6GJQsqaUBKTNV-1" vertex="1">
          <mxGeometry x="550" y="648" width="30" height="30" as="geometry" />
        </mxCell>
        <mxCell id="FCRwLtAqivfEXj3RPyWo-84" value="Answer" style="swimlane;fontStyle=1;align=center;verticalAlign=top;childLayout=stackLayout;horizontal=1;startSize=40;horizontalStack=0;resizeParent=1;resizeParentMax=0;resizeLast=0;collapsible=1;marginBottom=0;whiteSpace=wrap;html=1;" parent="WIyWlLk6GJQsqaUBKTNV-1" vertex="1">
          <mxGeometry x="60" y="1160" width="160" height="330" as="geometry" />
        </mxCell>
        <mxCell id="FCRwLtAqivfEXj3RPyWo-85" value="&lt;div&gt;&amp;nbsp; &amp;nbsp; -id: int&lt;/div&gt;&lt;div&gt;&amp;nbsp; &amp;nbsp; -question_id: int&lt;/div&gt;&lt;div&gt;&amp;nbsp; &amp;nbsp; -answer: string&lt;/div&gt;&lt;div&gt;&amp;nbsp; &amp;nbsp; -correct: boolean&lt;/div&gt;&lt;div&gt;&amp;nbsp; &amp;nbsp; -created_at: timestamp&lt;/div&gt;&lt;div&gt;&amp;nbsp; &amp;nbsp; -updated_at: timestamp&lt;/div&gt;" style="text;strokeColor=none;fillColor=none;align=left;verticalAlign=top;spacingLeft=4;spacingRight=4;overflow=hidden;rotatable=0;points=[[0,0.5],[1,0.5]];portConstraint=eastwest;whiteSpace=wrap;html=1;" parent="FCRwLtAqivfEXj3RPyWo-84" vertex="1">
          <mxGeometry y="40" width="160" height="100" as="geometry" />
        </mxCell>
        <mxCell id="FCRwLtAqivfEXj3RPyWo-86" value="" style="line;strokeWidth=1;fillColor=none;align=left;verticalAlign=middle;spacingTop=-1;spacingLeft=3;spacingRight=3;rotatable=0;labelPosition=right;points=[];portConstraint=eastwest;strokeColor=inherit;" parent="FCRwLtAqivfEXj3RPyWo-84" vertex="1">
          <mxGeometry y="140" width="160" height="8" as="geometry" />
        </mxCell>
        <mxCell id="FCRwLtAqivfEXj3RPyWo-87" value="&lt;div&gt;&amp;nbsp; +getId(): int&lt;/div&gt;&lt;div&gt;&amp;nbsp;+setId(id: int): void&lt;/div&gt;&lt;div&gt;&amp;nbsp;+getQuestionId(): int&lt;/div&gt;&lt;div&gt;&amp;nbsp;+setQuestionId(questionId: int): void&lt;/div&gt;&lt;div&gt;&amp;nbsp; &amp;nbsp; +getAnswer(): string&lt;/div&gt;&lt;div&gt;&amp;nbsp; &amp;nbsp; +setAnswer(answer: string): void&lt;/div&gt;&lt;div&gt;&amp;nbsp; &amp;nbsp; +isCorrect(): boolean&lt;/div&gt;&lt;div&gt;&amp;nbsp; &amp;nbsp; +setCorrect(correct: boolean): void&lt;/div&gt;" style="text;strokeColor=none;fillColor=none;align=left;verticalAlign=top;spacingLeft=4;spacingRight=4;overflow=hidden;rotatable=0;points=[[0,0.5],[1,0.5]];portConstraint=eastwest;whiteSpace=wrap;html=1;" parent="FCRwLtAqivfEXj3RPyWo-84" vertex="1">
          <mxGeometry y="148" width="160" height="182" as="geometry" />
        </mxCell>
        <mxCell id="FCRwLtAqivfEXj3RPyWo-88" value="Question" style="swimlane;fontStyle=1;align=center;verticalAlign=top;childLayout=stackLayout;horizontal=1;startSize=40;horizontalStack=0;resizeParent=1;resizeParentMax=0;resizeLast=0;collapsible=1;marginBottom=0;whiteSpace=wrap;html=1;" parent="WIyWlLk6GJQsqaUBKTNV-1" vertex="1">
          <mxGeometry x="70" y="690" width="160" height="310" as="geometry" />
        </mxCell>
        <mxCell id="FCRwLtAqivfEXj3RPyWo-89" value="&lt;div&gt;&amp;nbsp;-id: int&lt;/div&gt;&lt;div&gt;-question: string&lt;/div&gt;&lt;div&gt;-level: string&lt;/div&gt;&lt;div&gt;-language: string&lt;/div&gt;&lt;div&gt;&lt;span style=&quot;background-color: transparent; color: light-dark(rgb(0, 0, 0), rgb(255, 255, 255));&quot;&gt;-skill: string&lt;/span&gt;&lt;/div&gt;" style="text;strokeColor=none;fillColor=none;align=left;verticalAlign=top;spacingLeft=4;spacingRight=4;overflow=hidden;rotatable=0;points=[[0,0.5],[1,0.5]];portConstraint=eastwest;whiteSpace=wrap;html=1;" parent="FCRwLtAqivfEXj3RPyWo-88" vertex="1">
          <mxGeometry y="40" width="160" height="80" as="geometry" />
        </mxCell>
        <mxCell id="FCRwLtAqivfEXj3RPyWo-90" value="" style="line;strokeWidth=1;fillColor=none;align=left;verticalAlign=middle;spacingTop=-1;spacingLeft=3;spacingRight=3;rotatable=0;labelPosition=right;points=[];portConstraint=eastwest;strokeColor=inherit;" parent="FCRwLtAqivfEXj3RPyWo-88" vertex="1">
          <mxGeometry y="120" width="160" height="8" as="geometry" />
        </mxCell>
        <mxCell id="FCRwLtAqivfEXj3RPyWo-91" value="&lt;div&gt;&amp;nbsp; +getId(): int&lt;/div&gt;&lt;div&gt;&amp;nbsp;+setId(id: int): void&lt;/div&gt;&lt;div&gt;&amp;nbsp;+getQuestionId(): int&lt;/div&gt;&lt;div&gt;&amp;nbsp;+setQuestionId(questionId: int): void&lt;/div&gt;&lt;div&gt;&amp;nbsp; &amp;nbsp; +getAnswer(): string&lt;/div&gt;&lt;div&gt;&amp;nbsp; &amp;nbsp; +setAnswer(answer: string): void&lt;/div&gt;&lt;div&gt;&amp;nbsp; &amp;nbsp; +isCorrect(): boolean&lt;/div&gt;&lt;div&gt;&amp;nbsp; &amp;nbsp; +setCorrect(correct: boolean): void&lt;/div&gt;" style="text;strokeColor=none;fillColor=none;align=left;verticalAlign=top;spacingLeft=4;spacingRight=4;overflow=hidden;rotatable=0;points=[[0,0.5],[1,0.5]];portConstraint=eastwest;whiteSpace=wrap;html=1;" parent="FCRwLtAqivfEXj3RPyWo-88" vertex="1">
          <mxGeometry y="128" width="160" height="182" as="geometry" />
        </mxCell>
        <mxCell id="FCRwLtAqivfEXj3RPyWo-94" value="1...*" style="text;html=1;align=center;verticalAlign=middle;resizable=0;points=[];autosize=1;strokeColor=none;fillColor=none;" parent="WIyWlLk6GJQsqaUBKTNV-1" vertex="1">
          <mxGeometry x="140" y="1130" width="40" height="30" as="geometry" />
        </mxCell>
        <mxCell id="CL3-1n6owSuVRHUvZljF-5" value="" style="endArrow=block;endSize=16;endFill=0;html=1;rounded=0;entryX=0.505;entryY=1.006;entryDx=0;entryDy=0;entryPerimeter=0;exitX=0.5;exitY=0;exitDx=0;exitDy=0;" edge="1" parent="WIyWlLk6GJQsqaUBKTNV-1" target="FCRwLtAqivfEXj3RPyWo-3">
          <mxGeometry width="160" relative="1" as="geometry">
            <mxPoint x="472" y="440" as="sourcePoint" />
            <mxPoint x="630" y="376" as="targetPoint" />
          </mxGeometry>
        </mxCell>
        <mxCell id="CL3-1n6owSuVRHUvZljF-6" value="" style="endArrow=block;endSize=16;endFill=0;html=1;rounded=0;entryX=0.942;entryY=0.994;entryDx=0;entryDy=0;entryPerimeter=0;exitX=-0.011;exitY=0.244;exitDx=0;exitDy=0;exitPerimeter=0;" edge="1" parent="WIyWlLk6GJQsqaUBKTNV-1" source="FCRwLtAqivfEXj3RPyWo-75" target="FCRwLtAqivfEXj3RPyWo-3">
          <mxGeometry width="160" relative="1" as="geometry">
            <mxPoint x="751" y="434" as="sourcePoint" />
            <mxPoint x="750" y="365" as="targetPoint" />
          </mxGeometry>
        </mxCell>
        <mxCell id="CL3-1n6owSuVRHUvZljF-7" value="1" style="text;html=1;align=center;verticalAlign=middle;resizable=0;points=[];autosize=1;strokeColor=none;fillColor=none;" vertex="1" parent="WIyWlLk6GJQsqaUBKTNV-1">
          <mxGeometry x="150" y="1000" width="30" height="30" as="geometry" />
        </mxCell>
        <mxCell id="CL3-1n6owSuVRHUvZljF-9" value="" style="endArrow=none;html=1;rounded=0;" edge="1" parent="WIyWlLk6GJQsqaUBKTNV-1">
          <mxGeometry width="50" height="50" relative="1" as="geometry">
            <mxPoint x="140" y="1000" as="sourcePoint" />
            <mxPoint x="138" y="1160" as="targetPoint" />
          </mxGeometry>
        </mxCell>
      </root>
    </mxGraphModel>
  </diagram>
</mxfile>
